<?xml version="1.0" encoding="UTF-8" standalone="no"?>
<svg
   xmlns:dc="http://purl.org/dc/elements/1.1/"
   xmlns:cc="http://creativecommons.org/ns#"
   xmlns:rdf="http://www.w3.org/1999/02/22-rdf-syntax-ns#"
   xmlns:svg="http://www.w3.org/2000/svg"
   xmlns="http://www.w3.org/2000/svg"
   xmlns:sodipodi="http://sodipodi.sourceforge.net/DTD/sodipodi-0.dtd"
   xmlns:inkscape="http://www.inkscape.org/namespaces/inkscape"
   width="196.61041mm"
   height="51.506615mm"
   viewBox="0 0 196.61041 51.506615"
   version="1.1"
   id="svg32"
   inkscape:version="1.0.1 (3bc2e813f5, 2020-09-07)"
   sodipodi:docname="mst3k_overlay.svg">
  <defs
     id="defs26" />
  <sodipodi:namedview
     id="base"
     pagecolor="#ffffff"
     bordercolor="#666666"
     borderopacity="1.0"
     inkscape:pageopacity="0.0"
     inkscape:pageshadow="2"
     inkscape:zoom="0.98994949"
     inkscape:cx="464.55116"
     inkscape:cy="-2.442184"
     inkscape:document-units="mm"
     inkscape:current-layer="layer1"
     inkscape:document-rotation="0"
     showgrid="false"
     inkscape:window-width="1918"
     inkscape:window-height="2071"
     inkscape:window-x="1912"
     inkscape:window-y="0"
     inkscape:window-maximized="0"
     fit-margin-top="0"
     fit-margin-left="0"
     fit-margin-right="0"
     fit-margin-bottom="0" />
  <metadata
     id="metadata29">
    <rdf:RDF>
      <cc:Work
         rdf:about="">
        <dc:format>image/svg+xml</dc:format>
        <dc:type
           rdf:resource="http://purl.org/dc/dcmitype/StillImage" />
        <dc:title></dc:title>
      </cc:Work>
    </rdf:RDF>
  </metadata>
  <g
     inkscape:label="Layer 1"
     inkscape:groupmode="layer"
     id="layer1"
     transform="translate(-7.1835528,-138.06688)">
    <path
       style="fill:#020202;stroke:none;stroke-width:0.102369"
       d="m 137.04972,175.24188 1.02368,0.10237 c -0.62854,0.88538 -1.82523,2.08709 -2.76395,2.63824 -1.13731,0.66765 -2.48653,1.08112 -3.41706,2.08955 -1.06975,1.15922 -1.14141,3.04505 -1.599,4.48538 h -0.20473 c -1.67168,-3.35667 -5.67327,-4.16947 -9.00843,-4.48682 -0.87218,-0.083 -1.78633,-0.0774 -2.66159,-0.11577 -0.33269,-0.0145 -0.80461,0.0805 -1.07282,-0.16809 -0.61114,-0.56672 0.5661,-1.31503 0.97046,-1.57617 v -0.20474 l -0.61422,-0.20474 v -0.20473 l 0.51185,-0.20474 v -0.20474 l -0.61421,-0.20473 v -0.20474 l 0.51184,-0.20474 v -0.20474 l -0.61421,-0.20473 0.61421,-0.40948 c -0.4279,-0.45625 -1.01754,-0.64625 -1.6379,-0.6051 -0.39616,0.0264 -1.04313,0.25685 -1.37174,-0.0708 -0.49137,-0.49198 -0.0686,-1.82246 -0.42687,-2.48643 -0.28868,-0.53446 -1.23559,-0.70009 -1.78429,-0.83 l 0.20474,-0.51184 c -1.14243,-0.39944 -1.43316,-0.96176 -1.43316,-2.14974 h 0.71658 l -0.92132,-0.92132 v -0.20474 l 1.02369,-0.20473 c -0.16277,-1.11326 -1.50482,-1.23047 -1.20181,-2.61409 0.0962,-0.44315 0.72989,-0.86675 0.96227,-1.27592 0.68075,-1.19648 0.68075,-2.67018 0.0532,-3.89 -0.34908,-0.67809 -0.95101,-0.99154 -1.39119,-1.56624 -0.18836,-0.24569 -0.15662,-0.70675 -0.42483,-0.87863 -0.33986,-0.21682 -1.38883,-0.0206 -1.78531,0.0314 -0.51317,0.0675 -1.57002,-0.0637 -1.98564,0.26656 -0.25162,0.19993 -0.13513,0.64789 -0.26923,0.91845 -0.4669,0.9421 -1.10957,1.44811 -1.28309,2.55922 -0.17341,1.11029 0.18345,2.31844 0.92429,3.16421 0.29554,0.33751 0.86419,0.55402 1.06617,0.95193 0.14239,0.28038 0.0546,0.69201 0.13062,1.00229 0.28704,1.17099 0.54614,2.89344 0.37088,4.09474 -0.17372,1.19126 -1.70126,1.34502 -2.19724,2.26285 -0.59517,1.10118 0.22644,2.69649 0.048,3.87926 -0.2077,1.37665 -1.72245,2.5285 -1.30898,3.89 1.21521,-0.026 0.86317,-0.9771 1.74026,-1.43315 0.0981,0.52044 0.36966,1.3185 0.15847,1.83157 -0.17382,0.42258 -0.82867,0.6048 -1.18215,0.8515 -0.7389,0.51492 -1.43111,1.13732 -2.01666,1.82114 -1.29978,1.51915 -2.07256,3.94938 -2.07808,5.93738 h 102.98274 v -7.26817 c -1.12503,0.65004 -2.27565,1.76381 -2.96152,2.86632 -0.34396,0.55177 -0.57326,1.71672 -1.14653,2.0443 -0.42585,0.24364 -2.23675,0.14024 -2.62063,-0.16072 -0.62138,-0.4883 -0.8988,-1.74436 -1.41166,-2.39542 -1.23457,-1.56727 -3.02909,-2.83152 -4.86046,-3.5829 v -0.10237 l 1.74026,-0.92132 c -0.49546,-0.31314 -1.05951,-0.46148 -1.50481,-0.87197 -0.62855,-0.57982 -0.78517,-1.26538 -1.66861,-1.56378 -0.63264,-0.21385 -2.61347,-0.24825 -2.90829,-0.86338 -0.39924,-0.83205 -0.3675,-2.24853 -0.39719,-3.15009 -0.0102,-0.33955 -0.0645,-0.79704 0.19348,-1.06831 0.80871,-0.85181 2.34526,-0.11179 3.30138,-0.3974 0.59886,-0.17884 0.0532,-0.88856 -0.20781,-1.11909 -0.19143,-0.16922 -0.40128,-0.3199 -0.59578,-0.48625 1.17928,-0.21979 2.45377,-0.4711 3.48053,-1.13936 1.57033,-1.02318 3.32288,-3.91304 3.39454,-5.8217 0.0297,-0.78927 -0.71044,-1.31994 -0.79336,-2.04737 -0.0717,-0.62333 0.42688,-1.05164 0.26514,-1.74027 h -0.10237 l -0.10237,1.02369 -0.61421,-0.20474 c -0.23135,0.72262 -0.47192,0.78394 -0.99093,1.26046 -0.37876,0.34816 -0.58555,0.95633 -1.06565,1.18942 -0.93463,0.4537 -2.91751,-1.03003 -3.67606,-1.48772 -0.50979,-0.30731 -1.64097,-0.71771 -1.96855,-1.19781 -0.5231,-0.76951 0.81691,-1.38351 0.33065,-2.2212 h -0.10236 l -0.71658,0.40948 0.71658,0.20473 c -0.26411,0.54604 -0.56815,0.57532 -1.02369,0.20474 h -0.10237 c -1.44851,1.41903 -2.35038,3.3667 -2.95026,5.32317 -0.11977,0.39156 -0.005,0.85488 -0.15253,1.21931 -0.13103,0.32246 -0.46987,0.50846 -0.6183,0.82959 -0.22829,0.49639 0.0471,1.39948 -0.3327,1.77937 -0.32963,0.32881 -1.05542,0.12254 -1.47411,0.1859 -0.73296,0.11077 -1.46592,0.5832 -2.04737,1.01785 -0.2897,0.21682 -0.85682,0.64114 -0.73501,1.07795 0.11466,0.41387 1.21307,0.4281 1.55396,0.44049 1.15779,0.0423 2.97176,0.0904 3.78763,1.02481 -1.48741,0 -2.65032,0.1641 -3.89,1.07374 -0.40538,0.29769 -1.09841,0.79377 -0.86399,1.38269 0.28663,0.71873 1.12298,0.81527 1.78531,0.90842 2.1958,0.30864 3.32902,-0.64103 5.01606,-1.82932 l -0.72784,1.84816 0.0113,1.53 c -1.23457,0 -3.0168,-0.14895 -4.08553,0.59568 -1.16291,0.81056 -1.68396,2.30985 -3.08027,2.94453 -0.62547,0.28418 -1.47206,0.15519 -2.14974,0.27302 -1.49868,0.26032 -3.11508,0.73439 -4.40185,1.56624 -1.15062,0.74319 -1.92555,2.32171 -3.07208,2.90931 -0.605,0.31018 -1.68703,0.10544 -2.35345,0.10544 -0.48932,0 -1.20488,0.13001 -1.62766,-0.16379 -1.74845,-1.21921 -1.95524,-3.12019 -1.95524,-5.05701 0,-3.16206 0.89368,-6.15409 0.81793,-9.31553 -0.0706,-2.9127 0.14434,-6.28635 -0.60091,-9.1108 -0.31529,-1.19209 -0.97762,-2.15752 -1.45875,-3.2758 -1.68601,-3.92573 -3.88898,-7.50208 -6.15542,-11.06491 -0.28356,-0.44571 -0.0287,-0.94681 0.007,-1.42405 0.0512,-0.66867 -0.16891,-2.00438 -0.56405,-2.55328 -0.84147,-1.1671 -3.16319,-0.99451 -4.02923,-2.27319 -0.45042,-0.66489 -0.61114,-1.60965 -0.951,-2.33882 -0.0962,-0.20504 -0.33168,-0.6527 -0.62855,-0.49433 -0.54869,0.29297 0.17301,2.10633 0.30609,2.54119 0.18119,0.59732 0.58043,1.51168 0.42687,2.14022 -0.11363,0.46516 -0.64799,0.60357 -0.65413,1.13598 -0.0133,1.08501 0.54357,2.11852 0.98069,3.07065 0.68075,1.48189 2.27156,2.41395 2.90726,3.98326 0.19041,0.46926 -0.11874,0.95787 -0.12693,1.44227 -0.0113,0.64667 0.27127,1.65489 0.49444,2.25211 0.38286,1.02737 1.4178,1.70915 1.65734,2.76395 0.0911,0.40323 -0.20064,0.72406 -0.15048,1.12606 0.13718,1.09575 0.70737,2.1915 0.79541,3.27579 0.14126,1.7591 -0.20372,3.49926 -0.4146,5.2208 -0.14843,1.20549 0.46578,2.34229 -0.46066,3.37376 -0.34293,0.38081 -0.8128,0.58411 -1.20283,0.90719 -0.24773,0.20627 -0.44939,0.58575 -0.74217,0.7217 -0.4279,0.1988 -0.87934,-0.25879 -1.22433,-0.44367 -1.00014,-0.536 -2.20808,-1.22167 -2.3944,-2.40924 -0.11158,-0.70583 -0.086,-1.988 0.2201,-2.64644 0.19347,-0.41704 0.73398,-0.28263 0.74319,-0.83604 0.0123,-0.67062 -0.40231,-1.21081 -0.54665,-1.84069 -0.22623,-0.99 -0.24056,-2.03396 -0.6961,-2.96869 -0.66335,-1.36273 -2.18455,-2.17185 -3.34745,-3.03348 -0.61933,-0.45933 -1.10456,-0.96124 -1.84366,-1.25842 -1.6727,-0.67205 -2.91955,0.54747 -3.90331,1.70341 -1.88154,2.2129 -2.22857,5.20596 -1.48435,7.91166 0.15868,0.57899 0.11363,1.27398 0.42381,1.81059 0.14434,0.25009 0.4709,0.33219 0.65516,0.55893 0.86501,1.06187 1.77097,2.12906 1.81704,3.56734 0.0235,0.73777 -0.99297,0.73767 -1.50072,1.00629 -0.72272,0.38203 -1.34513,1.25104 -1.43316,2.06528 m 49.54637,-13.30791 c 0.65209,0.0339 2.12824,1.03546 1.167,1.759 -0.44223,0.33239 -1.12605,-0.44735 -1.16086,-0.83922 -0.0276,-0.30281 -0.006,-0.61585 -0.006,-0.91978 m -0.40947,0.20474 v 0.71658 c -0.34089,-0.1944 -0.33168,-0.35799 -0.20474,-0.71658 h 0.20474 m -0.30711,2.35447 c -0.19245,-0.0526 -0.34089,-0.095 -0.50365,-0.21988 -1.10149,-0.84608 1.04108,-1.90948 0.69098,-0.39484 -0.0481,0.20812 -0.12284,0.41152 -0.18733,0.61472 m 3.99237,0.30711 c -1.10865,-0.16615 -1.64608,-0.53406 -1.63789,-1.6379 1.18952,0.0544 1.63789,0.48257 1.63789,1.6379 m 0.20474,0.20474 v -1.6379 c 0.37672,0.0329 1.10456,0.0952 1.32567,0.45349 0.45452,0.73409 -0.77595,1.30878 -1.32567,1.18441 m -3.89,-0.61422 c 0.56405,-1.92012 2.85915,0.97118 0.61421,0.24825 -0.21702,-0.0701 -0.4105,-0.14567 -0.61421,-0.24825 m 7.67764,-0.3071 c 0.088,0.38798 0.006,0.57551 -0.40948,0.51184 l 0.40948,-0.51184 m 0.92131,0.10237 c -0.11567,0.48574 -0.25899,0.88794 -0.71658,1.12605 l -0.10237,-0.10237 c 0.11568,-0.50242 0.19553,-1.11469 0.81895,-1.02368 m -9.62264,0.40947 -0.81895,0.10237 c 0.23545,-0.41797 0.55177,-0.58063 0.81895,-0.10237 m 4.40185,1.74027 h -0.20474 c -0.30915,-0.36515 -0.78107,-0.57695 -1.06463,-0.96513 -0.15458,-0.21262 -0.21907,-0.61145 0.0737,-0.75077 1.16803,-0.55556 1.50789,0.99031 1.19567,1.7159 m 3.07105,-0.81895 c 0.6091,-1.55303 1.4649,0.61329 0,0 m -2.14974,-0.20474 -0.40947,0.61421 c -0.0358,-0.36668 0.0573,-0.50283 0.40947,-0.61421 m 2.76395,0.92132 -0.40947,-0.30711 0.40947,0.30711 m -0.61421,0.20474 -0.10237,0.40947 h -0.10236 v -0.40947 h 0.20473 m 1.12606,0.10236 -0.40948,0.61422 c -0.0563,-0.37426 0.0604,-0.48574 0.40948,-0.61422 m -1.12606,0.51185 0.10237,0.3071 -0.10237,0.10237 -0.3071,-0.10237 0.3071,-0.3071 m 0.51185,0.71658 -0.40948,0.40947 v -0.51184 l 0.40948,0.10237 m -157.442816,21.8045 h 31.120035 c -0.0031,-1.09637 -0.262883,-2.14155 -0.614519,-3.17343 -0.313452,-0.92029 -0.667954,-1.87129 -1.244392,-2.66158 -3.0384,-4.16507 -8.149559,-4.04755 -12.77979,-4.09515 -5.002034,-0.0515 -11.087229,-0.51031 -14.44461,3.99278 -0.609809,0.81793 -0.967485,1.7116 -1.314719,2.66158 -0.384394,1.05235 -0.67379,2.15179 -0.722005,3.2758 m -28.4584534,0 H 34.374073 c -0.203202,-1.60719 -0.576949,-3.35564 -1.311239,-4.81132 -3.080372,-6.10578 -11.478789,-5.44089 -17.217466,-5.05865 -2.250583,0.14997 -4.53117,0.0954 -6.6539548,0.99298 -0.571575,0.24169 -1.3667311,0.48215 -1.7808649,0.97004 -0.3845116,0.45349 -0.1641377,1.61026 -0.1641377,2.17431 v 5.73264 m 60.9092794,0 h 31.120035 c -0.16942,-1.34001 -0.48912,-2.64111 -1.009558,-3.89001 -2.78207,-6.67371 -10.578049,-5.835 -16.495462,-5.835 -4.268768,0 -9.136085,0.35255 -11.795517,4.19711 -0.564972,0.8169 -0.918553,1.72491 -1.222076,2.66158 -0.299735,0.92439 -0.589335,1.88767 -0.597422,2.86632 z"
       id="path48" />
  </g>
</svg>
